<svg width="21" height="21" viewBox="0 0 21 21" fill="none" xmlns="http://www.w3.org/2000/svg">
<path d="M17.5527 5.92285H4.2194C3.29893 5.92285 2.55273 6.66904 2.55273 7.58952V15.9229C2.55273 16.8433 3.29893 17.5895 4.2194 17.5895H17.5527C18.4732 17.5895 19.2194 16.8433 19.2194 15.9229V7.58952C19.2194 6.66904 18.4732 5.92285 17.5527 5.92285Z" stroke="white" stroke-width="1.66667" stroke-linecap="round" stroke-linejoin="round"/>
<path d="M14.2194 17.5898V4.25651C14.2194 3.81448 14.0438 3.39056 13.7312 3.078C13.4187 2.76544 12.9948 2.58984 12.5527 2.58984H9.2194C8.77737 2.58984 8.35345 2.76544 8.04089 3.078C7.72833 3.39056 7.55273 3.81448 7.55273 4.25651V17.5898" stroke="white" stroke-width="1.66667" stroke-linecap="round" stroke-linejoin="round"/>
</svg>
