<svg width="512" height="512" viewBox="0 0 512 512" fill="none" xmlns="http://www.w3.org/2000/svg">
<g clip-path="url(#clip0_240_2)">
<path d="M256 0C205.368 0 155.873 15.0141 113.774 43.1438C71.6751 71.2734 38.863 111.255 19.487 158.033C0.110921 204.811 -4.95873 256.284 4.91908 305.943C14.7969 355.602 39.1785 401.217 74.9808 437.019C110.783 472.822 156.398 497.203 206.057 507.081C255.716 516.959 307.189 511.889 353.967 492.513C400.745 473.137 440.727 440.325 468.856 398.226C496.986 356.127 512 306.632 512 256C511.927 188.127 484.932 123.055 436.938 75.0618C388.945 27.0683 323.873 0.0734097 256 0ZM256 469.333C213.807 469.333 172.561 456.822 137.478 433.38C102.396 409.939 75.0525 376.621 58.9058 337.639C42.7591 298.658 38.5344 255.763 46.7659 214.381C54.9974 172.998 75.3155 134.986 105.151 105.151C134.986 75.3154 172.998 54.9973 214.381 46.7658C255.763 38.5343 298.658 42.759 337.639 58.9057C376.621 75.0524 409.939 102.396 433.38 137.478C456.822 172.561 469.333 213.807 469.333 256C469.271 312.56 446.775 366.787 406.781 406.781C366.787 446.775 312.561 469.271 256 469.333Z" fill="white"/>
<path d="M256 213.333H234.667C229.009 213.333 223.583 215.581 219.582 219.582C215.581 223.583 213.333 229.009 213.333 234.667C213.333 240.325 215.581 245.751 219.582 249.752C223.583 253.753 229.009 256 234.667 256H256V384C256 389.658 258.248 395.084 262.249 399.085C266.249 403.086 271.676 405.333 277.333 405.333C282.991 405.333 288.418 403.086 292.418 399.085C296.419 395.084 298.667 389.658 298.667 384V256C298.667 244.684 294.172 233.832 286.17 225.83C278.168 217.829 267.316 213.333 256 213.333Z" fill="white"/>
<path d="M256 170.667C273.673 170.667 288 156.34 288 138.667C288 120.993 273.673 106.667 256 106.667C238.327 106.667 224 120.993 224 138.667C224 156.34 238.327 170.667 256 170.667Z" fill="white"/>
</g>
<defs>
<clipPath id="clip0_240_2">
<rect width="512" height="512" fill="white"/>
</clipPath>
</defs>
</svg>
