<svg width="21" height="21" viewBox="0 0 21 21" fill="none" xmlns="http://www.w3.org/2000/svg">
<path d="M13.1359 5.34027C12.9832 5.49605 12.8977 5.70548 12.8977 5.92361C12.8977 6.14174 12.9832 6.35117 13.1359 6.50694L14.4692 7.84027C14.625 7.99296 14.8344 8.07849 15.0525 8.07849C15.2707 8.07849 15.4801 7.99296 15.6359 7.84027L18.7775 4.69861C19.1966 5.6246 19.3234 6.6563 19.1412 7.65623C18.9591 8.65616 18.4765 9.57681 17.7578 10.2955C17.0391 11.0142 16.1184 11.4968 15.1185 11.679C14.1186 11.8612 13.0869 11.7343 12.1609 11.3153L6.40253 17.0736C6.07101 17.4051 5.62137 17.5914 5.15253 17.5914C4.68369 17.5914 4.23405 17.4051 3.90253 17.0736C3.57101 16.7421 3.38477 16.2924 3.38477 15.8236C3.38477 15.3548 3.57101 14.9051 3.90253 14.5736L9.66087 8.81527C9.24184 7.88928 9.11496 6.85758 9.29715 5.85765C9.47934 4.85773 9.96194 3.93707 10.6806 3.21838C11.3993 2.49968 12.32 2.01708 13.3199 1.83489C14.3198 1.6527 15.3515 1.77958 16.2775 2.19861L13.1442 5.33194L13.1359 5.34027Z" stroke="white" stroke-width="1.66667" stroke-linecap="round" stroke-linejoin="round"/>
</svg>
